G75*
%MOIN*%
%OFA0B0*%
%FSLAX25Y25*%
%IPPOS*%
%LPD*%
%AMOC8*
5,1,8,0,0,1.08239X$1,22.5*
%
%ADD10C,0.08200*%
%ADD11OC8,0.06800*%
%ADD12C,0.06800*%
%ADD13OC8,0.05156*%
%ADD14OC8,0.04762*%
%ADD15C,0.04762*%
%ADD16C,0.04800*%
D10*
X0172300Y0078550D03*
X0182300Y0078550D03*
X0192300Y0078550D03*
X0202300Y0078550D03*
X0212300Y0078550D03*
X0222300Y0078550D03*
X0232300Y0078550D03*
X0242300Y0078550D03*
D11*
X0257300Y0089300D03*
X0267300Y0089300D03*
X0267300Y0099300D03*
X0257300Y0099300D03*
X0257300Y0109300D03*
X0267300Y0109300D03*
X0267300Y0119300D03*
X0257300Y0119300D03*
X0257300Y0129300D03*
X0267300Y0129300D03*
X0267300Y0139300D03*
X0257300Y0139300D03*
X0257300Y0149300D03*
X0267300Y0149300D03*
D12*
X0251050Y0165300D02*
X0251050Y0171300D01*
X0241050Y0171300D02*
X0241050Y0165300D01*
X0231050Y0165300D02*
X0231050Y0171300D01*
D13*
X0074050Y0039550D03*
X0111050Y0066800D03*
X0140550Y0087550D03*
X0166550Y0107300D03*
X0173800Y0091300D03*
X0175800Y0053550D03*
X0242050Y0056550D03*
X0269300Y0054300D03*
X0179550Y0141300D03*
X0147550Y0151550D03*
X0159550Y0172800D03*
X0166300Y0172800D03*
X0173050Y0172550D03*
X0113300Y0111800D03*
X0084800Y0104050D03*
X0077800Y0144300D03*
D14*
X0166300Y0129800D03*
D15*
X0228300Y0105800D03*
X0208800Y0087800D03*
D16*
X0226400Y0097350D03*
X0212900Y0109050D03*
X0201200Y0120750D03*
X0185000Y0118950D03*
X0186800Y0103650D03*
X0145400Y0121650D03*
X0118400Y0136050D03*
X0107600Y0137850D03*
X0094100Y0087450D03*
X0162500Y0060450D03*
X0222800Y0067650D03*
X0248000Y0113550D03*
M02*
