G75*
%MOIN*%
%OFA0B0*%
%FSLAX25Y25*%
%IPPOS*%
%LPD*%
%AMOC8*
5,1,8,0,0,1.08239X$1,22.5*
%
%ADD10C,0.07400*%
%ADD11OC8,0.06000*%
%ADD12C,0.06000*%
%ADD13OC8,0.04356*%
%ADD14C,0.01600*%
%ADD15OC8,0.03962*%
%ADD16C,0.03962*%
%ADD17C,0.01000*%
%ADD18C,0.04000*%
D10*
X0172300Y0078550D03*
X0182300Y0078550D03*
X0192300Y0078550D03*
X0202300Y0078550D03*
X0212300Y0078550D03*
X0222300Y0078550D03*
X0232300Y0078550D03*
X0242300Y0078550D03*
D11*
X0257300Y0089300D03*
X0267300Y0089300D03*
X0267300Y0099300D03*
X0257300Y0099300D03*
X0257300Y0109300D03*
X0267300Y0109300D03*
X0267300Y0119300D03*
X0257300Y0119300D03*
X0257300Y0129300D03*
X0267300Y0129300D03*
X0267300Y0139300D03*
X0257300Y0139300D03*
X0257300Y0149300D03*
X0267300Y0149300D03*
D12*
X0251050Y0165300D02*
X0251050Y0171300D01*
X0241050Y0171300D02*
X0241050Y0165300D01*
X0231050Y0165300D02*
X0231050Y0171300D01*
D13*
X0179550Y0141300D03*
X0147550Y0151550D03*
X0159550Y0172800D03*
X0166300Y0172800D03*
X0173050Y0172550D03*
X0113300Y0111800D03*
X0084800Y0104050D03*
X0111050Y0066800D03*
X0140550Y0087550D03*
X0166550Y0107300D03*
X0173800Y0091300D03*
X0175800Y0053550D03*
X0242050Y0056550D03*
X0269300Y0054300D03*
X0077800Y0144300D03*
X0074050Y0039550D03*
D14*
X0060586Y0025861D02*
X0060114Y0188216D01*
X0271937Y0188455D01*
X0271829Y0151277D01*
X0269205Y0153900D01*
X0265395Y0153900D01*
X0262700Y0151205D01*
X0262700Y0147395D01*
X0265395Y0144700D01*
X0269205Y0144700D01*
X0271817Y0147312D01*
X0271799Y0141306D01*
X0269205Y0143900D01*
X0265395Y0143900D01*
X0262700Y0141205D01*
X0262700Y0137395D01*
X0265395Y0134700D01*
X0269205Y0134700D01*
X0271788Y0137282D01*
X0271770Y0131335D01*
X0269205Y0133900D01*
X0265395Y0133900D01*
X0263757Y0132263D01*
X0260900Y0135120D01*
X0260263Y0135757D01*
X0261900Y0137395D01*
X0261900Y0141205D01*
X0259205Y0143900D01*
X0255395Y0143900D01*
X0252700Y0141205D01*
X0252700Y0137395D01*
X0253745Y0136350D01*
X0126470Y0136350D01*
X0122300Y0140520D01*
X0121070Y0141750D01*
X0108530Y0141750D01*
X0108230Y0141450D01*
X0106884Y0141450D01*
X0105561Y0140902D01*
X0104548Y0139889D01*
X0104000Y0138566D01*
X0104000Y0137134D01*
X0104548Y0135811D01*
X0105561Y0134798D01*
X0106884Y0134250D01*
X0108316Y0134250D01*
X0109639Y0134798D01*
X0110652Y0135811D01*
X0111200Y0137134D01*
X0111200Y0137550D01*
X0115125Y0137550D01*
X0114800Y0136766D01*
X0114800Y0135334D01*
X0115348Y0134011D01*
X0116300Y0133059D01*
X0116300Y0124380D01*
X0167330Y0073350D01*
X0111170Y0073350D01*
X0097700Y0086820D01*
X0097700Y0088166D01*
X0097152Y0089489D01*
X0096139Y0090502D01*
X0094816Y0091050D01*
X0093384Y0091050D01*
X0092061Y0090502D01*
X0091048Y0089489D01*
X0090500Y0088166D01*
X0090500Y0086734D01*
X0091048Y0085411D01*
X0092061Y0084398D01*
X0093384Y0083850D01*
X0094730Y0083850D01*
X0109430Y0069150D01*
X0168230Y0069150D01*
X0163130Y0064050D01*
X0161784Y0064050D01*
X0160461Y0063502D01*
X0159448Y0062489D01*
X0158900Y0061166D01*
X0158900Y0059734D01*
X0159448Y0058411D01*
X0160461Y0057398D01*
X0161784Y0056850D01*
X0163216Y0056850D01*
X0164539Y0057398D01*
X0165552Y0058411D01*
X0166100Y0059734D01*
X0166100Y0061080D01*
X0170570Y0065550D01*
X0219809Y0065550D01*
X0220761Y0064598D01*
X0222084Y0064050D01*
X0223516Y0064050D01*
X0224839Y0064598D01*
X0225852Y0065611D01*
X0226400Y0066934D01*
X0226400Y0068366D01*
X0226075Y0069150D01*
X0247070Y0069150D01*
X0248300Y0070380D01*
X0264007Y0086087D01*
X0265395Y0084700D01*
X0269205Y0084700D01*
X0271642Y0087136D01*
X0271465Y0026339D01*
X0060586Y0025861D01*
X0060583Y0026747D02*
X0271466Y0026747D01*
X0271471Y0028346D02*
X0060579Y0028346D01*
X0060574Y0029944D02*
X0271475Y0029944D01*
X0271480Y0031543D02*
X0060570Y0031543D01*
X0060565Y0033141D02*
X0271485Y0033141D01*
X0271489Y0034740D02*
X0060560Y0034740D01*
X0060556Y0036338D02*
X0271494Y0036338D01*
X0271498Y0037937D02*
X0060551Y0037937D01*
X0060546Y0039535D02*
X0271503Y0039535D01*
X0271508Y0041134D02*
X0060542Y0041134D01*
X0060537Y0042732D02*
X0271512Y0042732D01*
X0271517Y0044331D02*
X0060532Y0044331D01*
X0060528Y0045929D02*
X0271522Y0045929D01*
X0271526Y0047528D02*
X0060523Y0047528D01*
X0060518Y0049126D02*
X0271531Y0049126D01*
X0271536Y0050725D02*
X0060514Y0050725D01*
X0060509Y0052323D02*
X0271540Y0052323D01*
X0271545Y0053922D02*
X0060504Y0053922D01*
X0060500Y0055520D02*
X0271550Y0055520D01*
X0271554Y0057119D02*
X0163865Y0057119D01*
X0165679Y0058717D02*
X0271559Y0058717D01*
X0271564Y0060316D02*
X0166100Y0060316D01*
X0166934Y0061914D02*
X0271568Y0061914D01*
X0271573Y0063513D02*
X0168533Y0063513D01*
X0170131Y0065111D02*
X0220248Y0065111D01*
X0225352Y0065111D02*
X0271578Y0065111D01*
X0271582Y0066710D02*
X0226307Y0066710D01*
X0226400Y0068308D02*
X0271587Y0068308D01*
X0271592Y0069907D02*
X0247827Y0069907D01*
X0249425Y0071505D02*
X0271596Y0071505D01*
X0271601Y0073104D02*
X0251024Y0073104D01*
X0252622Y0074702D02*
X0271606Y0074702D01*
X0271610Y0076301D02*
X0254221Y0076301D01*
X0255819Y0077899D02*
X0271615Y0077899D01*
X0271620Y0079498D02*
X0257418Y0079498D01*
X0259016Y0081096D02*
X0271624Y0081096D01*
X0271629Y0082695D02*
X0260615Y0082695D01*
X0262213Y0084293D02*
X0271633Y0084293D01*
X0271638Y0085892D02*
X0270397Y0085892D01*
X0264203Y0085892D02*
X0263812Y0085892D01*
X0257500Y0089500D02*
X0257100Y0089500D01*
X0257100Y0094100D01*
X0255312Y0094100D01*
X0252500Y0091288D01*
X0252500Y0089500D01*
X0257100Y0089500D01*
X0257100Y0089100D01*
X0252500Y0089100D01*
X0252500Y0087312D01*
X0255312Y0084500D01*
X0256480Y0084500D01*
X0245330Y0073350D01*
X0243596Y0073350D01*
X0245302Y0074057D01*
X0246793Y0075548D01*
X0247600Y0077496D01*
X0247600Y0079604D01*
X0246793Y0081552D01*
X0245302Y0083043D01*
X0243354Y0083850D01*
X0241246Y0083850D01*
X0239409Y0083089D01*
X0253207Y0096887D01*
X0255395Y0094700D01*
X0259205Y0094700D01*
X0261900Y0097395D01*
X0261900Y0101205D01*
X0259205Y0103900D01*
X0255395Y0103900D01*
X0252745Y0101250D01*
X0251630Y0101250D01*
X0233974Y0083593D01*
X0233354Y0083850D01*
X0231246Y0083850D01*
X0229580Y0083160D01*
X0253257Y0106837D01*
X0255395Y0104700D01*
X0259205Y0104700D01*
X0261900Y0107395D01*
X0261900Y0111205D01*
X0259205Y0113900D01*
X0256720Y0113900D01*
X0257520Y0114700D01*
X0259205Y0114700D01*
X0260993Y0116487D01*
X0261530Y0115950D01*
X0261530Y0115950D01*
X0264487Y0112993D01*
X0262700Y0111205D01*
X0262700Y0107395D01*
X0265395Y0104700D01*
X0269205Y0104700D01*
X0271700Y0107195D01*
X0271683Y0101422D01*
X0269205Y0103900D01*
X0265395Y0103900D01*
X0262700Y0101205D01*
X0262700Y0097395D01*
X0264237Y0095857D01*
X0261530Y0093150D01*
X0260884Y0092504D01*
X0259288Y0094100D01*
X0257500Y0094100D01*
X0257500Y0089500D01*
X0257500Y0090687D02*
X0257100Y0090687D01*
X0257100Y0092286D02*
X0257500Y0092286D01*
X0257500Y0093884D02*
X0257100Y0093884D01*
X0255096Y0093884D02*
X0250204Y0093884D01*
X0248606Y0092286D02*
X0253498Y0092286D01*
X0252500Y0090687D02*
X0247007Y0090687D01*
X0245409Y0089089D02*
X0252500Y0089089D01*
X0252500Y0087490D02*
X0243810Y0087490D01*
X0242212Y0085892D02*
X0253920Y0085892D01*
X0256274Y0084293D02*
X0240613Y0084293D01*
X0237871Y0087490D02*
X0233910Y0087490D01*
X0232312Y0085892D02*
X0236272Y0085892D01*
X0234674Y0084293D02*
X0230713Y0084293D01*
X0225969Y0089089D02*
X0212142Y0089089D01*
X0212381Y0088512D02*
X0211836Y0089829D01*
X0210829Y0090836D01*
X0209512Y0091381D01*
X0208088Y0091381D01*
X0206771Y0090836D01*
X0205764Y0089829D01*
X0205219Y0088512D01*
X0205219Y0087088D01*
X0205764Y0085771D01*
X0206771Y0084764D01*
X0208088Y0084219D01*
X0209512Y0084219D01*
X0210829Y0084764D01*
X0211836Y0085771D01*
X0212381Y0087088D01*
X0212381Y0088512D01*
X0212381Y0087490D02*
X0224371Y0087490D01*
X0222830Y0085950D02*
X0216530Y0085950D01*
X0214115Y0083535D01*
X0213354Y0083850D01*
X0211246Y0083850D01*
X0209298Y0083043D01*
X0207807Y0081552D01*
X0207415Y0080606D01*
X0207397Y0080661D01*
X0207004Y0081433D01*
X0206495Y0082133D01*
X0205883Y0082745D01*
X0205183Y0083254D01*
X0204411Y0083647D01*
X0203588Y0083915D01*
X0202733Y0084050D01*
X0202500Y0084050D01*
X0202500Y0078750D01*
X0202100Y0078750D01*
X0202100Y0084050D01*
X0201867Y0084050D01*
X0201012Y0083915D01*
X0200189Y0083647D01*
X0199417Y0083254D01*
X0198717Y0082745D01*
X0198105Y0082133D01*
X0197596Y0081433D01*
X0197203Y0080661D01*
X0197185Y0080606D01*
X0196793Y0081552D01*
X0195302Y0083043D01*
X0193354Y0083850D01*
X0191246Y0083850D01*
X0189298Y0083043D01*
X0187807Y0081552D01*
X0187300Y0080328D01*
X0186992Y0081072D01*
X0201170Y0095250D01*
X0223409Y0095250D01*
X0224361Y0094298D01*
X0225684Y0093750D01*
X0227116Y0093750D01*
X0228439Y0094298D01*
X0229452Y0095311D01*
X0230000Y0096634D01*
X0230000Y0098066D01*
X0229452Y0099389D01*
X0228439Y0100402D01*
X0227116Y0100950D01*
X0225684Y0100950D01*
X0224361Y0100402D01*
X0223409Y0099450D01*
X0199430Y0099450D01*
X0183691Y0083711D01*
X0183354Y0083850D01*
X0181246Y0083850D01*
X0179621Y0083177D01*
X0188835Y0092391D01*
X0189200Y0093273D01*
X0189200Y0100959D01*
X0189852Y0101611D01*
X0190400Y0102934D01*
X0190400Y0104366D01*
X0189852Y0105689D01*
X0188839Y0106702D01*
X0187516Y0107250D01*
X0186084Y0107250D01*
X0184761Y0106702D01*
X0183748Y0105689D01*
X0183200Y0104366D01*
X0183200Y0102934D01*
X0183748Y0101611D01*
X0184400Y0100959D01*
X0184400Y0094744D01*
X0173461Y0083806D01*
X0173354Y0083850D01*
X0171246Y0083850D01*
X0169298Y0083043D01*
X0167807Y0081552D01*
X0167005Y0079615D01*
X0120500Y0126120D01*
X0120500Y0133059D01*
X0121452Y0134011D01*
X0121867Y0135013D01*
X0124730Y0132150D01*
X0253645Y0132150D01*
X0252700Y0131205D01*
X0252700Y0127395D01*
X0253645Y0126450D01*
X0147230Y0126450D01*
X0146030Y0125250D01*
X0144684Y0125250D01*
X0143361Y0124702D01*
X0142348Y0123689D01*
X0141800Y0122366D01*
X0141800Y0120934D01*
X0142348Y0119611D01*
X0143361Y0118598D01*
X0144684Y0118050D01*
X0146116Y0118050D01*
X0147439Y0118598D01*
X0148452Y0119611D01*
X0149000Y0120934D01*
X0149000Y0122250D01*
X0183560Y0122250D01*
X0182961Y0122002D01*
X0181948Y0120989D01*
X0181400Y0119666D01*
X0181400Y0118234D01*
X0181948Y0116911D01*
X0182961Y0115898D01*
X0184284Y0115350D01*
X0185630Y0115350D01*
X0197630Y0103350D01*
X0215570Y0103350D01*
X0216800Y0104580D01*
X0223670Y0111450D01*
X0245009Y0111450D01*
X0245961Y0110498D01*
X0246963Y0110083D01*
X0222830Y0085950D01*
X0216472Y0085892D02*
X0211886Y0085892D01*
X0209692Y0084293D02*
X0214874Y0084293D01*
X0208950Y0082695D02*
X0205933Y0082695D01*
X0207175Y0081096D02*
X0207618Y0081096D01*
X0207908Y0084293D02*
X0190213Y0084293D01*
X0188950Y0082695D02*
X0188615Y0082695D01*
X0187618Y0081096D02*
X0187016Y0081096D01*
X0184274Y0084293D02*
X0180738Y0084293D01*
X0182336Y0085892D02*
X0185872Y0085892D01*
X0187471Y0087490D02*
X0183935Y0087490D01*
X0185533Y0089089D02*
X0189069Y0089089D01*
X0190668Y0090687D02*
X0187132Y0090687D01*
X0188730Y0092286D02*
X0192266Y0092286D01*
X0193865Y0093884D02*
X0189200Y0093884D01*
X0189200Y0095483D02*
X0195463Y0095483D01*
X0197062Y0097082D02*
X0189200Y0097082D01*
X0189200Y0098680D02*
X0198660Y0098680D01*
X0197505Y0103476D02*
X0190400Y0103476D01*
X0190107Y0105074D02*
X0195906Y0105074D01*
X0194308Y0106673D02*
X0188869Y0106673D01*
X0184731Y0106673D02*
X0139947Y0106673D01*
X0138349Y0108271D02*
X0192709Y0108271D01*
X0191111Y0109870D02*
X0136750Y0109870D01*
X0135152Y0111468D02*
X0189512Y0111468D01*
X0187914Y0113067D02*
X0133553Y0113067D01*
X0131955Y0114665D02*
X0186315Y0114665D01*
X0182595Y0116264D02*
X0130356Y0116264D01*
X0128758Y0117862D02*
X0181554Y0117862D01*
X0181400Y0119461D02*
X0148302Y0119461D01*
X0149000Y0121059D02*
X0182018Y0121059D01*
X0183493Y0105074D02*
X0141546Y0105074D01*
X0143144Y0103476D02*
X0183200Y0103476D01*
X0183638Y0101877D02*
X0144743Y0101877D01*
X0146341Y0100279D02*
X0184400Y0100279D01*
X0184400Y0098680D02*
X0147940Y0098680D01*
X0149538Y0097082D02*
X0184400Y0097082D01*
X0184400Y0095483D02*
X0151137Y0095483D01*
X0152735Y0093884D02*
X0183540Y0093884D01*
X0181942Y0092286D02*
X0154334Y0092286D01*
X0155932Y0090687D02*
X0180343Y0090687D01*
X0178745Y0089089D02*
X0157531Y0089089D01*
X0159129Y0087490D02*
X0177146Y0087490D01*
X0175548Y0085892D02*
X0160728Y0085892D01*
X0162326Y0084293D02*
X0173949Y0084293D01*
X0168950Y0082695D02*
X0163925Y0082695D01*
X0165523Y0081096D02*
X0167618Y0081096D01*
X0172400Y0079350D02*
X0186800Y0093750D01*
X0186800Y0103650D01*
X0189962Y0101877D02*
X0238757Y0101877D01*
X0237159Y0100279D02*
X0228563Y0100279D01*
X0229746Y0098680D02*
X0235560Y0098680D01*
X0233962Y0097082D02*
X0230000Y0097082D01*
X0229523Y0095483D02*
X0232363Y0095483D01*
X0230765Y0093884D02*
X0227441Y0093884D01*
X0225359Y0093884D02*
X0199804Y0093884D01*
X0198206Y0092286D02*
X0229166Y0092286D01*
X0227568Y0090687D02*
X0210977Y0090687D01*
X0206623Y0090687D02*
X0196607Y0090687D01*
X0195009Y0089089D02*
X0205458Y0089089D01*
X0205219Y0087490D02*
X0193410Y0087490D01*
X0191812Y0085892D02*
X0205714Y0085892D01*
X0202500Y0082695D02*
X0202100Y0082695D01*
X0202100Y0081096D02*
X0202500Y0081096D01*
X0202500Y0079498D02*
X0202100Y0079498D01*
X0198667Y0082695D02*
X0195650Y0082695D01*
X0196982Y0081096D02*
X0197425Y0081096D01*
X0189200Y0100279D02*
X0224237Y0100279D01*
X0227300Y0102550D02*
X0227300Y0105800D01*
X0228300Y0105800D01*
X0222089Y0109870D02*
X0246750Y0109870D01*
X0245151Y0108271D02*
X0220491Y0108271D01*
X0218892Y0106673D02*
X0243553Y0106673D01*
X0241954Y0105074D02*
X0217294Y0105074D01*
X0215695Y0103476D02*
X0240356Y0103476D01*
X0245100Y0098680D02*
X0249060Y0098680D01*
X0247462Y0097082D02*
X0243501Y0097082D01*
X0241903Y0095483D02*
X0245863Y0095483D01*
X0244265Y0093884D02*
X0240304Y0093884D01*
X0238706Y0092286D02*
X0242666Y0092286D01*
X0241068Y0090687D02*
X0237107Y0090687D01*
X0235509Y0089089D02*
X0239469Y0089089D01*
X0245650Y0082695D02*
X0254675Y0082695D01*
X0253077Y0081096D02*
X0246982Y0081096D01*
X0247600Y0079498D02*
X0251478Y0079498D01*
X0249880Y0077899D02*
X0247600Y0077899D01*
X0247105Y0076301D02*
X0248281Y0076301D01*
X0246683Y0074702D02*
X0245948Y0074702D01*
X0259504Y0093884D02*
X0262265Y0093884D01*
X0263863Y0095483D02*
X0259988Y0095483D01*
X0261587Y0097082D02*
X0263013Y0097082D01*
X0262700Y0098680D02*
X0261900Y0098680D01*
X0261900Y0100279D02*
X0262700Y0100279D01*
X0263372Y0101877D02*
X0261228Y0101877D01*
X0259630Y0103476D02*
X0264970Y0103476D01*
X0265021Y0105074D02*
X0259579Y0105074D01*
X0261178Y0106673D02*
X0263422Y0106673D01*
X0262700Y0108271D02*
X0261900Y0108271D01*
X0261900Y0109870D02*
X0262700Y0109870D01*
X0262963Y0111468D02*
X0261637Y0111468D01*
X0260039Y0113067D02*
X0264414Y0113067D01*
X0262815Y0114665D02*
X0257485Y0114665D01*
X0260769Y0116264D02*
X0261216Y0116264D01*
X0253422Y0106673D02*
X0253092Y0106673D01*
X0251494Y0105074D02*
X0255021Y0105074D01*
X0254970Y0103476D02*
X0249895Y0103476D01*
X0248297Y0101877D02*
X0253372Y0101877D01*
X0250659Y0100279D02*
X0246698Y0100279D01*
X0251803Y0095483D02*
X0254612Y0095483D01*
X0269630Y0103476D02*
X0271689Y0103476D01*
X0271694Y0105074D02*
X0269579Y0105074D01*
X0271178Y0106673D02*
X0271699Y0106673D01*
X0271685Y0101877D02*
X0271228Y0101877D01*
X0252700Y0127453D02*
X0120500Y0127453D01*
X0120500Y0129052D02*
X0252700Y0129052D01*
X0252700Y0130650D02*
X0120500Y0130650D01*
X0120500Y0132249D02*
X0124631Y0132249D01*
X0123033Y0133847D02*
X0121288Y0133847D01*
X0116300Y0132249D02*
X0060277Y0132249D01*
X0060272Y0133847D02*
X0115512Y0133847D01*
X0114800Y0135446D02*
X0110287Y0135446D01*
X0111163Y0137044D02*
X0114915Y0137044D01*
X0116300Y0130650D02*
X0060281Y0130650D01*
X0060286Y0129052D02*
X0116300Y0129052D01*
X0116300Y0127453D02*
X0060291Y0127453D01*
X0060295Y0125855D02*
X0116300Y0125855D01*
X0116424Y0124256D02*
X0060300Y0124256D01*
X0060305Y0122658D02*
X0118022Y0122658D01*
X0119621Y0121059D02*
X0060309Y0121059D01*
X0060314Y0119461D02*
X0121219Y0119461D01*
X0122818Y0117862D02*
X0060319Y0117862D01*
X0060323Y0116264D02*
X0124416Y0116264D01*
X0126015Y0114665D02*
X0060328Y0114665D01*
X0060332Y0113067D02*
X0127614Y0113067D01*
X0129212Y0111468D02*
X0060337Y0111468D01*
X0060342Y0109870D02*
X0130811Y0109870D01*
X0132409Y0108271D02*
X0060346Y0108271D01*
X0060351Y0106673D02*
X0134008Y0106673D01*
X0135606Y0105074D02*
X0060356Y0105074D01*
X0060360Y0103476D02*
X0137205Y0103476D01*
X0138803Y0101877D02*
X0060365Y0101877D01*
X0060370Y0100279D02*
X0140402Y0100279D01*
X0142000Y0098680D02*
X0060374Y0098680D01*
X0060379Y0097082D02*
X0143599Y0097082D01*
X0145197Y0095483D02*
X0060384Y0095483D01*
X0060388Y0093884D02*
X0146796Y0093884D01*
X0148394Y0092286D02*
X0060393Y0092286D01*
X0060398Y0090687D02*
X0092509Y0090687D01*
X0090882Y0089089D02*
X0060402Y0089089D01*
X0060407Y0087490D02*
X0090500Y0087490D01*
X0090849Y0085892D02*
X0060411Y0085892D01*
X0060416Y0084293D02*
X0092313Y0084293D01*
X0095885Y0082695D02*
X0060421Y0082695D01*
X0060425Y0081096D02*
X0097484Y0081096D01*
X0099082Y0079498D02*
X0060430Y0079498D01*
X0060435Y0077899D02*
X0100681Y0077899D01*
X0102279Y0076301D02*
X0060439Y0076301D01*
X0060444Y0074702D02*
X0103878Y0074702D01*
X0105476Y0073104D02*
X0060449Y0073104D01*
X0060453Y0071505D02*
X0107075Y0071505D01*
X0108673Y0069907D02*
X0060458Y0069907D01*
X0060463Y0068308D02*
X0167388Y0068308D01*
X0165790Y0066710D02*
X0060467Y0066710D01*
X0060472Y0065111D02*
X0164191Y0065111D01*
X0160487Y0063513D02*
X0060477Y0063513D01*
X0060481Y0061914D02*
X0159210Y0061914D01*
X0158900Y0060316D02*
X0060486Y0060316D01*
X0060490Y0058717D02*
X0159321Y0058717D01*
X0161135Y0057119D02*
X0060495Y0057119D01*
X0098628Y0085892D02*
X0154788Y0085892D01*
X0153190Y0087490D02*
X0097700Y0087490D01*
X0097318Y0089089D02*
X0151591Y0089089D01*
X0149993Y0090687D02*
X0095691Y0090687D01*
X0100226Y0084293D02*
X0156387Y0084293D01*
X0157985Y0082695D02*
X0101825Y0082695D01*
X0103423Y0081096D02*
X0159584Y0081096D01*
X0161182Y0079498D02*
X0105022Y0079498D01*
X0106620Y0077899D02*
X0162781Y0077899D01*
X0164379Y0076301D02*
X0108219Y0076301D01*
X0109817Y0074702D02*
X0165978Y0074702D01*
X0142498Y0119461D02*
X0127159Y0119461D01*
X0125561Y0121059D02*
X0141800Y0121059D01*
X0141921Y0122658D02*
X0123962Y0122658D01*
X0122364Y0124256D02*
X0142915Y0124256D01*
X0146635Y0125855D02*
X0120765Y0125855D01*
X0125776Y0137044D02*
X0253050Y0137044D01*
X0252700Y0138643D02*
X0124177Y0138643D01*
X0122579Y0140241D02*
X0252700Y0140241D01*
X0253334Y0141840D02*
X0060249Y0141840D01*
X0060244Y0143438D02*
X0254933Y0143438D01*
X0255395Y0144700D02*
X0259205Y0144700D01*
X0261900Y0147395D01*
X0261900Y0151205D01*
X0259205Y0153900D01*
X0255395Y0153900D01*
X0252700Y0151205D01*
X0252700Y0147395D01*
X0255395Y0144700D01*
X0255058Y0145037D02*
X0060240Y0145037D01*
X0060235Y0146635D02*
X0253459Y0146635D01*
X0252700Y0148234D02*
X0060230Y0148234D01*
X0060226Y0149832D02*
X0252700Y0149832D01*
X0252926Y0151431D02*
X0060221Y0151431D01*
X0060216Y0153029D02*
X0254524Y0153029D01*
X0260076Y0153029D02*
X0264524Y0153029D01*
X0262926Y0151431D02*
X0261674Y0151431D01*
X0261900Y0149832D02*
X0262700Y0149832D01*
X0262700Y0148234D02*
X0261900Y0148234D01*
X0261141Y0146635D02*
X0263459Y0146635D01*
X0265058Y0145037D02*
X0259542Y0145037D01*
X0259667Y0143438D02*
X0264933Y0143438D01*
X0263334Y0141840D02*
X0261266Y0141840D01*
X0261900Y0140241D02*
X0262700Y0140241D01*
X0262700Y0138643D02*
X0261900Y0138643D01*
X0261550Y0137044D02*
X0263050Y0137044D01*
X0264649Y0135446D02*
X0260574Y0135446D01*
X0262173Y0133847D02*
X0265342Y0133847D01*
X0269258Y0133847D02*
X0271778Y0133847D01*
X0271773Y0132249D02*
X0270857Y0132249D01*
X0269951Y0135446D02*
X0271782Y0135446D01*
X0271787Y0137044D02*
X0271550Y0137044D01*
X0271801Y0141840D02*
X0271266Y0141840D01*
X0271806Y0143438D02*
X0269667Y0143438D01*
X0269542Y0145037D02*
X0271810Y0145037D01*
X0271815Y0146635D02*
X0271141Y0146635D01*
X0271674Y0151431D02*
X0271829Y0151431D01*
X0271834Y0153029D02*
X0270076Y0153029D01*
X0271838Y0154628D02*
X0060212Y0154628D01*
X0060207Y0156226D02*
X0271843Y0156226D01*
X0271848Y0157825D02*
X0060202Y0157825D01*
X0060198Y0159423D02*
X0271852Y0159423D01*
X0271857Y0161022D02*
X0253227Y0161022D01*
X0252893Y0160852D02*
X0253566Y0161195D01*
X0254177Y0161639D01*
X0254711Y0162173D01*
X0255155Y0162784D01*
X0255498Y0163457D01*
X0255732Y0164176D01*
X0255850Y0164922D01*
X0255850Y0168100D01*
X0251250Y0168100D01*
X0251250Y0168500D01*
X0250850Y0168500D01*
X0250850Y0176100D01*
X0250672Y0176100D01*
X0249926Y0175982D01*
X0249207Y0175748D01*
X0248534Y0175405D01*
X0247923Y0174961D01*
X0247389Y0174427D01*
X0246945Y0173816D01*
X0246602Y0173143D01*
X0246368Y0172424D01*
X0246250Y0171678D01*
X0246250Y0168500D01*
X0250850Y0168500D01*
X0250850Y0168100D01*
X0246250Y0168100D01*
X0246250Y0164922D01*
X0246368Y0164176D01*
X0246602Y0163457D01*
X0246945Y0162784D01*
X0247389Y0162173D01*
X0247923Y0161639D01*
X0248534Y0161195D01*
X0249207Y0160852D01*
X0249926Y0160618D01*
X0250672Y0160500D01*
X0250850Y0160500D01*
X0250850Y0168100D01*
X0251250Y0168100D01*
X0251250Y0160500D01*
X0251428Y0160500D01*
X0252174Y0160618D01*
X0252893Y0160852D01*
X0251250Y0161022D02*
X0250850Y0161022D01*
X0250850Y0162620D02*
X0251250Y0162620D01*
X0251250Y0164219D02*
X0250850Y0164219D01*
X0250850Y0165818D02*
X0251250Y0165818D01*
X0251250Y0167416D02*
X0250850Y0167416D01*
X0251250Y0168500D02*
X0255850Y0168500D01*
X0255850Y0171678D01*
X0255732Y0172424D01*
X0255498Y0173143D01*
X0255155Y0173816D01*
X0254711Y0174427D01*
X0254177Y0174961D01*
X0253566Y0175405D01*
X0252893Y0175748D01*
X0252174Y0175982D01*
X0251428Y0176100D01*
X0251250Y0176100D01*
X0251250Y0168500D01*
X0251250Y0169015D02*
X0250850Y0169015D01*
X0250850Y0170613D02*
X0251250Y0170613D01*
X0251250Y0172212D02*
X0250850Y0172212D01*
X0250850Y0173810D02*
X0251250Y0173810D01*
X0251250Y0175409D02*
X0250850Y0175409D01*
X0248541Y0175409D02*
X0243559Y0175409D01*
X0243566Y0175405D02*
X0242893Y0175748D01*
X0242174Y0175982D01*
X0241428Y0176100D01*
X0241250Y0176100D01*
X0241250Y0168500D01*
X0240850Y0168500D01*
X0240850Y0176100D01*
X0240672Y0176100D01*
X0239926Y0175982D01*
X0239207Y0175748D01*
X0238534Y0175405D01*
X0237923Y0174961D01*
X0237389Y0174427D01*
X0236945Y0173816D01*
X0236602Y0173143D01*
X0236368Y0172424D01*
X0236250Y0171678D01*
X0236250Y0168500D01*
X0240850Y0168500D01*
X0240850Y0168100D01*
X0236250Y0168100D01*
X0236250Y0164922D01*
X0236368Y0164176D01*
X0236602Y0163457D01*
X0236945Y0162784D01*
X0237389Y0162173D01*
X0237923Y0161639D01*
X0238534Y0161195D01*
X0239207Y0160852D01*
X0239926Y0160618D01*
X0240672Y0160500D01*
X0240850Y0160500D01*
X0240850Y0168100D01*
X0241250Y0168100D01*
X0241250Y0168500D01*
X0245850Y0168500D01*
X0245850Y0171678D01*
X0245732Y0172424D01*
X0245498Y0173143D01*
X0245155Y0173816D01*
X0244711Y0174427D01*
X0244177Y0174961D01*
X0243566Y0175405D01*
X0245158Y0173810D02*
X0246942Y0173810D01*
X0246335Y0172212D02*
X0245765Y0172212D01*
X0245850Y0170613D02*
X0246250Y0170613D01*
X0246250Y0169015D02*
X0245850Y0169015D01*
X0245850Y0168100D02*
X0241250Y0168100D01*
X0241250Y0160500D01*
X0241428Y0160500D01*
X0242174Y0160618D01*
X0242893Y0160852D01*
X0243566Y0161195D01*
X0244177Y0161639D01*
X0244711Y0162173D01*
X0245155Y0162784D01*
X0245498Y0163457D01*
X0245732Y0164176D01*
X0245850Y0164922D01*
X0245850Y0168100D01*
X0245850Y0167416D02*
X0246250Y0167416D01*
X0246250Y0165818D02*
X0245850Y0165818D01*
X0245739Y0164219D02*
X0246361Y0164219D01*
X0247064Y0162620D02*
X0245036Y0162620D01*
X0243227Y0161022D02*
X0248873Y0161022D01*
X0255036Y0162620D02*
X0271862Y0162620D01*
X0271866Y0164219D02*
X0255739Y0164219D01*
X0255850Y0165818D02*
X0271871Y0165818D01*
X0271876Y0167416D02*
X0255850Y0167416D01*
X0255850Y0169015D02*
X0271880Y0169015D01*
X0271885Y0170613D02*
X0255850Y0170613D01*
X0255765Y0172212D02*
X0271889Y0172212D01*
X0271894Y0173810D02*
X0255158Y0173810D01*
X0253559Y0175409D02*
X0271899Y0175409D01*
X0271903Y0177007D02*
X0060147Y0177007D01*
X0060151Y0175409D02*
X0228949Y0175409D01*
X0228444Y0175200D02*
X0227150Y0173906D01*
X0226450Y0172215D01*
X0226450Y0164385D01*
X0227150Y0162694D01*
X0228444Y0161400D01*
X0230135Y0160700D01*
X0231965Y0160700D01*
X0233656Y0161400D01*
X0234950Y0162694D01*
X0235650Y0164385D01*
X0235650Y0172215D01*
X0234950Y0173906D01*
X0233656Y0175200D01*
X0231965Y0175900D01*
X0230135Y0175900D01*
X0228444Y0175200D01*
X0227111Y0173810D02*
X0060156Y0173810D01*
X0060160Y0172212D02*
X0226450Y0172212D01*
X0226450Y0170613D02*
X0060165Y0170613D01*
X0060170Y0169015D02*
X0226450Y0169015D01*
X0226450Y0167416D02*
X0060174Y0167416D01*
X0060179Y0165818D02*
X0226450Y0165818D01*
X0226519Y0164219D02*
X0060184Y0164219D01*
X0060188Y0162620D02*
X0227224Y0162620D01*
X0229358Y0161022D02*
X0060193Y0161022D01*
X0060142Y0178606D02*
X0271908Y0178606D01*
X0271913Y0180204D02*
X0060137Y0180204D01*
X0060133Y0181803D02*
X0271917Y0181803D01*
X0271922Y0183401D02*
X0060128Y0183401D01*
X0060123Y0185000D02*
X0271927Y0185000D01*
X0271931Y0186598D02*
X0060119Y0186598D01*
X0060114Y0188197D02*
X0271936Y0188197D01*
X0241250Y0175409D02*
X0240850Y0175409D01*
X0240850Y0173810D02*
X0241250Y0173810D01*
X0241250Y0172212D02*
X0240850Y0172212D01*
X0240850Y0170613D02*
X0241250Y0170613D01*
X0241250Y0169015D02*
X0240850Y0169015D01*
X0240850Y0167416D02*
X0241250Y0167416D01*
X0241250Y0165818D02*
X0240850Y0165818D01*
X0240850Y0164219D02*
X0241250Y0164219D01*
X0241250Y0162620D02*
X0240850Y0162620D01*
X0240850Y0161022D02*
X0241250Y0161022D01*
X0238873Y0161022D02*
X0232742Y0161022D01*
X0234876Y0162620D02*
X0237064Y0162620D01*
X0236361Y0164219D02*
X0235581Y0164219D01*
X0235650Y0165818D02*
X0236250Y0165818D01*
X0236250Y0167416D02*
X0235650Y0167416D01*
X0235650Y0169015D02*
X0236250Y0169015D01*
X0236250Y0170613D02*
X0235650Y0170613D01*
X0235650Y0172212D02*
X0236335Y0172212D01*
X0236942Y0173810D02*
X0234989Y0173810D01*
X0233151Y0175409D02*
X0238541Y0175409D01*
X0104900Y0140241D02*
X0060253Y0140241D01*
X0060258Y0138643D02*
X0104032Y0138643D01*
X0104037Y0137044D02*
X0060263Y0137044D01*
X0060267Y0135446D02*
X0104913Y0135446D01*
D15*
X0166300Y0129800D03*
D16*
X0228300Y0105800D03*
X0208800Y0087800D03*
D17*
X0212900Y0079350D02*
X0217400Y0083850D01*
X0223700Y0083850D01*
X0257000Y0117150D01*
X0257000Y0118950D01*
X0257300Y0119300D01*
X0262400Y0118050D02*
X0262400Y0120750D01*
X0258800Y0124350D01*
X0148100Y0124350D01*
X0145400Y0121650D01*
X0125600Y0134250D02*
X0120200Y0139650D01*
X0109400Y0139650D01*
X0107600Y0137850D01*
X0118400Y0136050D02*
X0118400Y0125250D01*
X0170600Y0073050D01*
X0236300Y0073050D01*
X0241700Y0078450D01*
X0242300Y0078550D01*
X0232700Y0079350D02*
X0232300Y0078550D01*
X0232700Y0079350D02*
X0252500Y0099150D01*
X0257000Y0099150D01*
X0257300Y0099300D01*
X0266900Y0099150D02*
X0266900Y0095550D01*
X0262400Y0091050D01*
X0262400Y0087450D01*
X0246200Y0071250D01*
X0110300Y0071250D01*
X0094100Y0087450D01*
X0162500Y0060450D02*
X0169700Y0067650D01*
X0222800Y0067650D01*
X0222300Y0078550D02*
X0222800Y0079350D01*
X0252500Y0109050D01*
X0257000Y0109050D01*
X0257300Y0109300D01*
X0266900Y0109950D02*
X0267300Y0109300D01*
X0266900Y0109950D02*
X0266900Y0113550D01*
X0262400Y0118050D01*
X0266900Y0119850D02*
X0267300Y0119300D01*
X0266900Y0119850D02*
X0266900Y0123450D01*
X0262400Y0127950D01*
X0262400Y0130650D01*
X0258800Y0134250D01*
X0125600Y0134250D01*
X0185000Y0118950D02*
X0198500Y0105450D01*
X0214700Y0105450D01*
X0222800Y0113550D01*
X0248000Y0113550D01*
X0266900Y0099150D02*
X0267300Y0099300D01*
X0226400Y0097350D02*
X0200300Y0097350D01*
X0182300Y0079350D01*
X0182300Y0078550D01*
X0172400Y0079350D02*
X0172300Y0078550D01*
X0212300Y0078550D02*
X0212900Y0079350D01*
X0212900Y0109050D02*
X0201200Y0120750D01*
D18*
X0201200Y0120750D03*
X0185000Y0118950D03*
X0186800Y0103650D03*
X0212900Y0109050D03*
X0226400Y0097350D03*
X0248000Y0113550D03*
X0222800Y0067650D03*
X0162500Y0060450D03*
X0094100Y0087450D03*
X0145400Y0121650D03*
X0118400Y0136050D03*
X0107600Y0137850D03*
M02*
