G75*
%MOIN*%
%OFA0B0*%
%FSLAX25Y25*%
%IPPOS*%
%LPD*%
%AMOC8*
5,1,8,0,0,1.08239X$1,22.5*
%
%ADD10C,0.00400*%
%ADD11C,0.00800*%
%ADD12C,0.00500*%
%ADD13R,0.01673X0.01280*%
%ADD14R,0.01378X0.01378*%
%ADD15C,0.00600*%
%ADD16C,0.00000*%
%ADD17C,0.00300*%
%ADD18C,0.00200*%
D10*
X0086500Y0067750D02*
X0086500Y0072354D01*
X0088802Y0072354D01*
X0089569Y0071587D01*
X0089569Y0070052D01*
X0088802Y0069285D01*
X0086500Y0069285D01*
X0088035Y0069285D02*
X0089569Y0067750D01*
X0091104Y0067750D02*
X0094173Y0067750D01*
X0092639Y0067750D02*
X0092639Y0072354D01*
X0091104Y0070819D01*
X0089763Y0072438D02*
X0092833Y0072438D01*
X0093600Y0073206D01*
X0093600Y0074740D01*
X0092833Y0075507D01*
X0092246Y0075000D02*
X0092246Y0077302D01*
X0093013Y0078069D01*
X0094548Y0078069D01*
X0095315Y0077302D01*
X0095315Y0075000D01*
X0095315Y0076535D02*
X0096850Y0078069D01*
X0096850Y0079604D02*
X0096850Y0082673D01*
X0096850Y0081139D02*
X0092246Y0081139D01*
X0093781Y0079604D01*
X0093600Y0080111D02*
X0093600Y0077042D01*
X0093600Y0078577D02*
X0088996Y0078577D01*
X0090531Y0077042D01*
X0089763Y0075507D02*
X0088996Y0074740D01*
X0088996Y0073206D01*
X0089763Y0072438D01*
X0092246Y0075000D02*
X0096850Y0075000D01*
X0098777Y0072354D02*
X0097242Y0071587D01*
X0095708Y0070052D01*
X0098010Y0070052D01*
X0098777Y0069285D01*
X0098777Y0068517D01*
X0098010Y0067750D01*
X0096475Y0067750D01*
X0095708Y0068517D01*
X0095708Y0070052D01*
X0092833Y0081646D02*
X0089763Y0081646D01*
X0088996Y0082413D01*
X0088996Y0083948D01*
X0089763Y0084715D01*
X0092833Y0081646D01*
X0093600Y0082413D01*
X0093600Y0083948D01*
X0092833Y0084715D01*
X0089763Y0084715D01*
X0092246Y0084975D02*
X0093013Y0084208D01*
X0093781Y0084208D01*
X0094548Y0084975D01*
X0094548Y0087277D01*
X0093013Y0087277D02*
X0092246Y0086510D01*
X0092246Y0084975D01*
X0093013Y0087277D02*
X0096083Y0087277D01*
X0096850Y0086510D01*
X0096850Y0084975D01*
X0096083Y0084208D01*
X0096792Y0093750D02*
X0099861Y0093750D01*
X0098327Y0093750D02*
X0098327Y0098354D01*
X0096792Y0096819D01*
X0095257Y0096052D02*
X0094490Y0095285D01*
X0092188Y0095285D01*
X0093723Y0095285D02*
X0095257Y0093750D01*
X0092188Y0093750D02*
X0092188Y0098354D01*
X0094490Y0098354D01*
X0095257Y0097587D01*
X0095257Y0096052D01*
X0101396Y0096819D02*
X0101396Y0097587D01*
X0102163Y0098354D01*
X0103698Y0098354D01*
X0104465Y0097587D01*
X0104465Y0096819D01*
X0103698Y0096052D01*
X0102163Y0096052D01*
X0101396Y0096819D01*
X0102163Y0096052D02*
X0101396Y0095285D01*
X0101396Y0094517D01*
X0102163Y0093750D01*
X0103698Y0093750D01*
X0104465Y0094517D01*
X0104465Y0095285D01*
X0103698Y0096052D01*
X0119048Y0086277D02*
X0119048Y0083208D01*
X0116746Y0085510D01*
X0121350Y0085510D01*
X0121350Y0081673D02*
X0121350Y0078604D01*
X0121350Y0080139D02*
X0116746Y0080139D01*
X0118281Y0078604D01*
X0119048Y0077069D02*
X0119815Y0076302D01*
X0119815Y0074000D01*
X0119815Y0075535D02*
X0121350Y0077069D01*
X0119048Y0077069D02*
X0117513Y0077069D01*
X0116746Y0076302D01*
X0116746Y0074000D01*
X0121350Y0074000D01*
X0160746Y0074396D02*
X0160746Y0077465D01*
X0161513Y0077465D01*
X0164583Y0074396D01*
X0165350Y0074396D01*
X0164583Y0072861D02*
X0165350Y0072094D01*
X0165350Y0070559D01*
X0164583Y0069792D01*
X0161513Y0069792D01*
X0160746Y0070559D01*
X0160746Y0072094D01*
X0161513Y0072861D01*
X0160246Y0089188D02*
X0160246Y0091490D01*
X0161013Y0092257D01*
X0162548Y0092257D01*
X0163315Y0091490D01*
X0163315Y0089188D01*
X0163315Y0090723D02*
X0164850Y0092257D01*
X0164850Y0093792D02*
X0164850Y0096861D01*
X0164850Y0095327D02*
X0160246Y0095327D01*
X0161781Y0093792D01*
X0160246Y0089188D02*
X0164850Y0089188D01*
X0164850Y0098396D02*
X0161781Y0101465D01*
X0161013Y0101465D01*
X0160246Y0100698D01*
X0160246Y0099163D01*
X0161013Y0098396D01*
X0164850Y0098396D02*
X0164850Y0101465D01*
X0153715Y0106267D02*
X0153715Y0109337D01*
X0152948Y0110104D01*
X0151413Y0110104D01*
X0150646Y0109337D01*
X0150646Y0108569D01*
X0151413Y0107802D01*
X0153715Y0107802D01*
X0153715Y0106267D02*
X0152948Y0105500D01*
X0151413Y0105500D01*
X0150646Y0106267D01*
X0149111Y0106267D02*
X0148344Y0105500D01*
X0146809Y0105500D01*
X0146042Y0106267D01*
X0146042Y0109337D01*
X0146809Y0110104D01*
X0148344Y0110104D01*
X0149111Y0109337D01*
X0138777Y0109819D02*
X0138010Y0109052D01*
X0138777Y0108285D01*
X0138777Y0107517D01*
X0138010Y0106750D01*
X0136475Y0106750D01*
X0135708Y0107517D01*
X0134173Y0106750D02*
X0131104Y0106750D01*
X0132639Y0106750D02*
X0132639Y0111354D01*
X0131104Y0109819D01*
X0129569Y0109052D02*
X0128802Y0108285D01*
X0126500Y0108285D01*
X0128035Y0108285D02*
X0129569Y0106750D01*
X0129569Y0109052D02*
X0129569Y0110587D01*
X0128802Y0111354D01*
X0126500Y0111354D01*
X0126500Y0106750D01*
X0135708Y0110587D02*
X0136475Y0111354D01*
X0138010Y0111354D01*
X0138777Y0110587D01*
X0138777Y0109819D01*
X0138010Y0109052D02*
X0137242Y0109052D01*
X0141938Y0125250D02*
X0141938Y0129854D01*
X0144240Y0129854D01*
X0145007Y0129087D01*
X0145007Y0127552D01*
X0144240Y0126785D01*
X0141938Y0126785D01*
X0143473Y0126785D02*
X0145007Y0125250D01*
X0146542Y0125250D02*
X0149611Y0125250D01*
X0148077Y0125250D02*
X0148077Y0129854D01*
X0146542Y0128319D01*
X0151146Y0128319D02*
X0152681Y0129854D01*
X0152681Y0125250D01*
X0154215Y0125250D02*
X0151146Y0125250D01*
X0164246Y0148750D02*
X0164246Y0151052D01*
X0165013Y0151819D01*
X0166548Y0151819D01*
X0167315Y0151052D01*
X0167315Y0148750D01*
X0167315Y0150285D02*
X0168850Y0151819D01*
X0166548Y0153354D02*
X0166548Y0156423D01*
X0164246Y0155656D02*
X0166548Y0153354D01*
X0168850Y0155656D02*
X0164246Y0155656D01*
X0164246Y0148750D02*
X0168850Y0148750D01*
X0185334Y0150000D02*
X0188404Y0150000D01*
X0189938Y0150000D02*
X0193007Y0150000D01*
X0194542Y0150000D02*
X0196844Y0150000D01*
X0197611Y0150767D01*
X0197611Y0153837D01*
X0196844Y0154604D01*
X0194542Y0154604D01*
X0194542Y0150000D01*
X0191473Y0152302D02*
X0189938Y0152302D01*
X0189938Y0154604D02*
X0189938Y0150000D01*
X0185334Y0150000D02*
X0185334Y0154604D01*
X0189938Y0154604D02*
X0193007Y0154604D01*
X0199146Y0153069D02*
X0200681Y0154604D01*
X0200681Y0150000D01*
X0202215Y0150000D02*
X0199146Y0150000D01*
X0214250Y0161017D02*
X0215017Y0160250D01*
X0216552Y0160250D01*
X0217319Y0161017D01*
X0218854Y0160250D02*
X0221923Y0160250D01*
X0220389Y0160250D02*
X0220389Y0164854D01*
X0218854Y0163319D01*
X0217319Y0164087D02*
X0216552Y0164854D01*
X0215017Y0164854D01*
X0214250Y0164087D01*
X0214250Y0161017D01*
X0220500Y0144604D02*
X0222802Y0144604D01*
X0223569Y0143837D01*
X0223569Y0140767D01*
X0222802Y0140000D01*
X0220500Y0140000D01*
X0220500Y0144604D01*
X0225104Y0144604D02*
X0225104Y0141535D01*
X0226639Y0140000D01*
X0228173Y0141535D01*
X0228173Y0144604D01*
X0229708Y0144604D02*
X0232010Y0144604D01*
X0232777Y0143837D01*
X0232777Y0142302D01*
X0232010Y0141535D01*
X0229708Y0141535D01*
X0231242Y0141535D02*
X0232777Y0140000D01*
X0234312Y0140767D02*
X0234312Y0141535D01*
X0235079Y0142302D01*
X0236614Y0142302D01*
X0237381Y0141535D01*
X0237381Y0140767D01*
X0236614Y0140000D01*
X0235079Y0140000D01*
X0234312Y0140767D01*
X0235079Y0142302D02*
X0234312Y0143069D01*
X0234312Y0143837D01*
X0235079Y0144604D01*
X0236614Y0144604D01*
X0237381Y0143837D01*
X0237381Y0143069D01*
X0236614Y0142302D01*
X0238916Y0143837D02*
X0239683Y0144604D01*
X0241218Y0144604D01*
X0241985Y0143837D01*
X0241985Y0143069D01*
X0241218Y0142302D01*
X0241985Y0141535D01*
X0241985Y0140767D01*
X0241218Y0140000D01*
X0239683Y0140000D01*
X0238916Y0140767D01*
X0240450Y0142302D02*
X0241218Y0142302D01*
X0243520Y0143069D02*
X0245054Y0144604D01*
X0245054Y0140000D01*
X0243520Y0140000D02*
X0246589Y0140000D01*
X0248124Y0140767D02*
X0248891Y0140000D01*
X0250426Y0140000D01*
X0251193Y0140767D01*
X0251193Y0141535D01*
X0250426Y0142302D01*
X0249658Y0142302D01*
X0250426Y0142302D02*
X0251193Y0143069D01*
X0251193Y0143837D01*
X0250426Y0144604D01*
X0248891Y0144604D01*
X0248124Y0143837D01*
X0229708Y0144604D02*
X0229708Y0140000D01*
X0200215Y0134337D02*
X0200215Y0133569D01*
X0199448Y0132802D01*
X0200215Y0132035D01*
X0200215Y0131267D01*
X0199448Y0130500D01*
X0197913Y0130500D01*
X0197146Y0131267D01*
X0195611Y0131267D02*
X0194844Y0130500D01*
X0193309Y0130500D01*
X0192542Y0131267D01*
X0192542Y0134337D01*
X0193309Y0135104D01*
X0194844Y0135104D01*
X0195611Y0134337D01*
X0197146Y0134337D02*
X0197913Y0135104D01*
X0199448Y0135104D01*
X0200215Y0134337D01*
X0199448Y0132802D02*
X0198681Y0132802D01*
X0187850Y0125448D02*
X0183246Y0125448D01*
X0185548Y0123146D01*
X0185548Y0126215D01*
X0184013Y0121611D02*
X0183246Y0120844D01*
X0183246Y0119309D01*
X0184013Y0118542D01*
X0187083Y0118542D01*
X0187850Y0119309D01*
X0187850Y0120844D01*
X0187083Y0121611D01*
X0192542Y0122087D02*
X0192542Y0119017D01*
X0193309Y0118250D01*
X0194844Y0118250D01*
X0195611Y0119017D01*
X0197146Y0118250D02*
X0200215Y0121319D01*
X0200215Y0122087D01*
X0199448Y0122854D01*
X0197913Y0122854D01*
X0197146Y0122087D01*
X0195611Y0122087D02*
X0194844Y0122854D01*
X0193309Y0122854D01*
X0192542Y0122087D01*
X0197146Y0118250D02*
X0200215Y0118250D01*
X0204267Y0105354D02*
X0203500Y0104587D01*
X0203500Y0101517D01*
X0204267Y0100750D01*
X0205802Y0100750D01*
X0206569Y0101517D01*
X0208104Y0101517D02*
X0208104Y0102285D01*
X0208871Y0103052D01*
X0210406Y0103052D01*
X0211173Y0102285D01*
X0211173Y0101517D01*
X0210406Y0100750D01*
X0208871Y0100750D01*
X0208104Y0101517D01*
X0208871Y0103052D02*
X0208104Y0103819D01*
X0208104Y0104587D01*
X0208871Y0105354D01*
X0210406Y0105354D01*
X0211173Y0104587D01*
X0211173Y0103819D01*
X0210406Y0103052D01*
X0206569Y0104587D02*
X0205802Y0105354D01*
X0204267Y0105354D01*
X0250750Y0070854D02*
X0253052Y0070854D01*
X0253819Y0070087D01*
X0253819Y0068552D01*
X0253052Y0067785D01*
X0250750Y0067785D01*
X0252285Y0067785D02*
X0253819Y0066250D01*
X0255354Y0067017D02*
X0256121Y0066250D01*
X0257656Y0066250D01*
X0258423Y0067017D01*
X0258423Y0067785D01*
X0257656Y0068552D01*
X0256889Y0068552D01*
X0257656Y0068552D02*
X0258423Y0069319D01*
X0258423Y0070087D01*
X0257656Y0070854D01*
X0256121Y0070854D01*
X0255354Y0070087D01*
X0250750Y0070854D02*
X0250750Y0066250D01*
X0251250Y0053104D02*
X0253552Y0053104D01*
X0254319Y0052337D01*
X0254319Y0050802D01*
X0253552Y0050035D01*
X0251250Y0050035D01*
X0252785Y0050035D02*
X0254319Y0048500D01*
X0255854Y0048500D02*
X0258923Y0051569D01*
X0258923Y0052337D01*
X0258156Y0053104D01*
X0256621Y0053104D01*
X0255854Y0052337D01*
X0251250Y0053104D02*
X0251250Y0048500D01*
X0255854Y0048500D02*
X0258923Y0048500D01*
X0257889Y0039104D02*
X0257889Y0034500D01*
X0259423Y0034500D02*
X0256354Y0034500D01*
X0254819Y0034500D02*
X0253285Y0036035D01*
X0254052Y0036035D02*
X0251750Y0036035D01*
X0251750Y0034500D02*
X0251750Y0039104D01*
X0254052Y0039104D01*
X0254819Y0038337D01*
X0254819Y0036802D01*
X0254052Y0036035D01*
X0256354Y0037569D02*
X0257889Y0039104D01*
X0148850Y0039673D02*
X0148850Y0036604D01*
X0148850Y0038139D02*
X0144246Y0038139D01*
X0145781Y0036604D01*
X0146548Y0035069D02*
X0145013Y0035069D01*
X0144246Y0034302D01*
X0144246Y0032000D01*
X0148850Y0032000D01*
X0147315Y0032000D02*
X0147315Y0034302D01*
X0146548Y0035069D01*
X0147315Y0033535D02*
X0148850Y0035069D01*
X0148083Y0041208D02*
X0148850Y0041975D01*
X0148850Y0043510D01*
X0148083Y0044277D01*
X0146548Y0044277D01*
X0145781Y0043510D01*
X0145781Y0042742D01*
X0146548Y0041208D01*
X0144246Y0041208D01*
X0144246Y0044277D01*
X0129350Y0039406D02*
X0129350Y0037871D01*
X0128583Y0037104D01*
X0129350Y0035569D02*
X0127815Y0034035D01*
X0127815Y0034802D02*
X0127815Y0032500D01*
X0129350Y0032500D02*
X0124746Y0032500D01*
X0124746Y0034802D01*
X0125513Y0035569D01*
X0127048Y0035569D01*
X0127815Y0034802D01*
X0126281Y0037104D02*
X0127048Y0037871D01*
X0127048Y0040173D01*
X0125513Y0040173D02*
X0124746Y0039406D01*
X0124746Y0037871D01*
X0125513Y0037104D01*
X0126281Y0037104D01*
X0125513Y0040173D02*
X0128583Y0040173D01*
X0129350Y0039406D01*
X0109100Y0039906D02*
X0109100Y0038371D01*
X0108333Y0037604D01*
X0106798Y0037604D02*
X0106031Y0039139D01*
X0106031Y0039906D01*
X0106798Y0040673D01*
X0108333Y0040673D01*
X0109100Y0039906D01*
X0106798Y0037604D02*
X0104496Y0037604D01*
X0104496Y0040673D01*
X0105263Y0036069D02*
X0104496Y0035302D01*
X0104496Y0033000D01*
X0109100Y0033000D01*
X0107565Y0033000D02*
X0107565Y0035302D01*
X0106798Y0036069D01*
X0105263Y0036069D01*
X0107565Y0034535D02*
X0109100Y0036069D01*
X0066600Y0091500D02*
X0061996Y0091500D01*
X0061996Y0093802D01*
X0062763Y0094569D01*
X0064298Y0094569D01*
X0065065Y0093802D01*
X0065065Y0091500D01*
X0065065Y0093035D02*
X0066600Y0094569D01*
X0066600Y0096104D02*
X0066600Y0099173D01*
X0066600Y0097639D02*
X0061996Y0097639D01*
X0063531Y0096104D01*
X0061996Y0100708D02*
X0061996Y0103777D01*
X0062763Y0103777D01*
X0065833Y0100708D01*
X0066600Y0100708D01*
X0072017Y0124750D02*
X0073552Y0124750D01*
X0074319Y0125517D01*
X0075854Y0124750D02*
X0078923Y0124750D01*
X0077389Y0124750D02*
X0077389Y0129354D01*
X0075854Y0127819D01*
X0074319Y0128587D02*
X0073552Y0129354D01*
X0072017Y0129354D01*
X0071250Y0128587D01*
X0071250Y0125517D01*
X0072017Y0124750D01*
X0080458Y0124750D02*
X0083527Y0124750D01*
X0081992Y0124750D02*
X0081992Y0129354D01*
X0080458Y0127819D01*
X0092292Y0150750D02*
X0092292Y0155354D01*
X0094594Y0155354D01*
X0095361Y0154587D01*
X0095361Y0153052D01*
X0094594Y0152285D01*
X0092292Y0152285D01*
X0093827Y0152285D02*
X0095361Y0150750D01*
X0096896Y0150750D02*
X0096896Y0151517D01*
X0099965Y0154587D01*
X0099965Y0155354D01*
X0096896Y0155354D01*
X0093948Y0161000D02*
X0092413Y0161000D01*
X0091646Y0161767D01*
X0091646Y0163302D01*
X0093948Y0163302D01*
X0094715Y0162535D01*
X0094715Y0161767D01*
X0093948Y0161000D01*
X0091646Y0163302D02*
X0093181Y0164837D01*
X0094715Y0165604D01*
X0090111Y0164837D02*
X0089344Y0165604D01*
X0087809Y0165604D01*
X0087042Y0164837D01*
X0087042Y0161767D01*
X0087809Y0161000D01*
X0089344Y0161000D01*
X0090111Y0161767D01*
X0104188Y0169500D02*
X0104188Y0174104D01*
X0106490Y0174104D01*
X0107257Y0173337D01*
X0107257Y0171802D01*
X0106490Y0171035D01*
X0104188Y0171035D01*
X0105723Y0171035D02*
X0107257Y0169500D01*
X0108792Y0169500D02*
X0111861Y0169500D01*
X0110327Y0169500D02*
X0110327Y0174104D01*
X0108792Y0172569D01*
X0113396Y0173337D02*
X0114163Y0174104D01*
X0115698Y0174104D01*
X0116465Y0173337D01*
X0113396Y0170267D01*
X0114163Y0169500D01*
X0115698Y0169500D01*
X0116465Y0170267D01*
X0116465Y0173337D01*
X0113396Y0173337D02*
X0113396Y0170267D01*
X0117246Y0166215D02*
X0118013Y0164681D01*
X0119548Y0163146D01*
X0119548Y0165448D01*
X0120315Y0166215D01*
X0121083Y0166215D01*
X0121850Y0165448D01*
X0121850Y0163913D01*
X0121083Y0163146D01*
X0119548Y0163146D01*
X0119548Y0161611D02*
X0118013Y0161611D01*
X0117246Y0160844D01*
X0117246Y0158542D01*
X0121850Y0158542D01*
X0120315Y0158542D02*
X0120315Y0160844D01*
X0119548Y0161611D01*
X0120315Y0160077D02*
X0121850Y0161611D01*
X0124500Y0162267D02*
X0125267Y0161500D01*
X0126802Y0161500D01*
X0127569Y0162267D01*
X0129104Y0162267D02*
X0129871Y0161500D01*
X0131406Y0161500D01*
X0132173Y0162267D01*
X0132173Y0163802D01*
X0131406Y0164569D01*
X0130639Y0164569D01*
X0129104Y0163802D01*
X0129104Y0166104D01*
X0132173Y0166104D01*
X0127569Y0165337D02*
X0126802Y0166104D01*
X0125267Y0166104D01*
X0124500Y0165337D01*
X0124500Y0162267D01*
X0130000Y0173000D02*
X0130000Y0177604D01*
X0132302Y0177604D01*
X0133069Y0176837D01*
X0133069Y0175302D01*
X0132302Y0174535D01*
X0130000Y0174535D01*
X0131535Y0174535D02*
X0133069Y0173000D01*
X0134604Y0173767D02*
X0134604Y0174535D01*
X0135371Y0175302D01*
X0136906Y0175302D01*
X0137673Y0174535D01*
X0137673Y0173767D01*
X0136906Y0173000D01*
X0135371Y0173000D01*
X0134604Y0173767D01*
X0135371Y0175302D02*
X0134604Y0176069D01*
X0134604Y0176837D01*
X0135371Y0177604D01*
X0136906Y0177604D01*
X0137673Y0176837D01*
X0137673Y0176069D01*
X0136906Y0175302D01*
D11*
X0134500Y0139713D02*
X0100706Y0139713D01*
X0100706Y0139712D02*
X0100636Y0139700D01*
X0100566Y0139683D01*
X0100498Y0139663D01*
X0100431Y0139639D01*
X0100365Y0139612D01*
X0100300Y0139581D01*
X0100238Y0139547D01*
X0100177Y0139509D01*
X0100119Y0139468D01*
X0100062Y0139424D01*
X0100009Y0139377D01*
X0099958Y0139327D01*
X0099909Y0139275D01*
X0099864Y0139220D01*
X0099821Y0139162D01*
X0099782Y0139103D01*
X0099746Y0139041D01*
X0099714Y0138977D01*
X0099685Y0138912D01*
X0099659Y0138846D01*
X0099638Y0138778D01*
X0099619Y0138708D01*
X0099605Y0138639D01*
X0099595Y0138568D01*
X0099588Y0138497D01*
X0099585Y0138426D01*
X0099586Y0138354D01*
X0099591Y0138283D01*
X0099600Y0138212D01*
X0099600Y0138213D02*
X0099600Y0125887D01*
X0099602Y0125811D01*
X0099608Y0125736D01*
X0099617Y0125660D01*
X0099631Y0125585D01*
X0099648Y0125511D01*
X0099669Y0125438D01*
X0099693Y0125366D01*
X0099721Y0125296D01*
X0099753Y0125227D01*
X0099788Y0125159D01*
X0099827Y0125094D01*
X0099869Y0125030D01*
X0099914Y0124969D01*
X0099962Y0124910D01*
X0100013Y0124854D01*
X0100067Y0124800D01*
X0100123Y0124749D01*
X0100182Y0124701D01*
X0100243Y0124656D01*
X0100307Y0124614D01*
X0100372Y0124575D01*
X0100440Y0124540D01*
X0100509Y0124508D01*
X0100579Y0124480D01*
X0100651Y0124456D01*
X0100724Y0124435D01*
X0100798Y0124418D01*
X0100873Y0124404D01*
X0100949Y0124395D01*
X0101024Y0124389D01*
X0101100Y0124387D01*
X0134500Y0124387D01*
X0134581Y0124399D01*
X0134661Y0124414D01*
X0134740Y0124433D01*
X0134818Y0124455D01*
X0134895Y0124482D01*
X0134971Y0124511D01*
X0135045Y0124545D01*
X0135117Y0124582D01*
X0135188Y0124622D01*
X0135256Y0124666D01*
X0135323Y0124713D01*
X0135387Y0124763D01*
X0135448Y0124816D01*
X0135507Y0124872D01*
X0135564Y0124931D01*
X0135617Y0124992D01*
X0135668Y0125056D01*
X0135715Y0125122D01*
X0135759Y0125190D01*
X0135800Y0125260D01*
X0135838Y0125332D01*
X0135872Y0125406D01*
X0135902Y0125482D01*
X0135929Y0125558D01*
X0135952Y0125636D01*
X0135972Y0125715D01*
X0135987Y0125795D01*
X0135999Y0125876D01*
X0136007Y0125956D01*
X0136011Y0126038D01*
X0136012Y0126119D01*
X0136008Y0126200D01*
X0136001Y0126281D01*
X0136000Y0126331D02*
X0136000Y0129650D01*
X0135800Y0129650D02*
X0135702Y0129652D01*
X0135604Y0129658D01*
X0135506Y0129667D01*
X0135409Y0129681D01*
X0135312Y0129698D01*
X0135216Y0129719D01*
X0135121Y0129744D01*
X0135027Y0129772D01*
X0134935Y0129805D01*
X0134843Y0129840D01*
X0134753Y0129880D01*
X0134665Y0129922D01*
X0134578Y0129969D01*
X0134494Y0130018D01*
X0134411Y0130071D01*
X0134331Y0130127D01*
X0134252Y0130187D01*
X0134176Y0130249D01*
X0134103Y0130314D01*
X0134032Y0130382D01*
X0133964Y0130453D01*
X0133899Y0130526D01*
X0133837Y0130602D01*
X0133777Y0130681D01*
X0133721Y0130761D01*
X0133668Y0130844D01*
X0133619Y0130928D01*
X0133572Y0131015D01*
X0133530Y0131103D01*
X0133490Y0131193D01*
X0133455Y0131285D01*
X0133422Y0131377D01*
X0133394Y0131471D01*
X0133369Y0131566D01*
X0133348Y0131662D01*
X0133331Y0131759D01*
X0133317Y0131856D01*
X0133308Y0131954D01*
X0133302Y0132052D01*
X0133300Y0132150D01*
X0133302Y0132248D01*
X0133308Y0132346D01*
X0133317Y0132444D01*
X0133331Y0132541D01*
X0133348Y0132638D01*
X0133369Y0132734D01*
X0133394Y0132829D01*
X0133422Y0132923D01*
X0133455Y0133015D01*
X0133490Y0133107D01*
X0133530Y0133197D01*
X0133572Y0133285D01*
X0133619Y0133372D01*
X0133668Y0133456D01*
X0133721Y0133539D01*
X0133777Y0133619D01*
X0133837Y0133698D01*
X0133899Y0133774D01*
X0133964Y0133847D01*
X0134032Y0133918D01*
X0134103Y0133986D01*
X0134176Y0134051D01*
X0134252Y0134113D01*
X0134331Y0134173D01*
X0134411Y0134229D01*
X0134494Y0134282D01*
X0134578Y0134331D01*
X0134665Y0134378D01*
X0134753Y0134420D01*
X0134843Y0134460D01*
X0134935Y0134495D01*
X0135027Y0134528D01*
X0135121Y0134556D01*
X0135216Y0134581D01*
X0135312Y0134602D01*
X0135409Y0134619D01*
X0135506Y0134633D01*
X0135604Y0134642D01*
X0135702Y0134648D01*
X0135800Y0134650D01*
X0136000Y0134650D02*
X0136000Y0138606D01*
X0135999Y0138606D02*
X0135987Y0138676D01*
X0135970Y0138746D01*
X0135950Y0138814D01*
X0135927Y0138882D01*
X0135899Y0138948D01*
X0135868Y0139012D01*
X0135834Y0139074D01*
X0135796Y0139135D01*
X0135756Y0139194D01*
X0135712Y0139250D01*
X0135665Y0139303D01*
X0135615Y0139355D01*
X0135562Y0139403D01*
X0135507Y0139448D01*
X0135450Y0139491D01*
X0135390Y0139530D01*
X0135328Y0139566D01*
X0135265Y0139598D01*
X0135200Y0139627D01*
X0135133Y0139653D01*
X0135065Y0139675D01*
X0134996Y0139693D01*
X0134926Y0139707D01*
X0134855Y0139717D01*
X0134784Y0139724D01*
X0134713Y0139727D01*
X0134642Y0139726D01*
X0134570Y0139721D01*
X0134500Y0139712D01*
X0169800Y0083550D02*
X0174800Y0083550D01*
X0177300Y0081050D01*
X0179800Y0083550D01*
X0184800Y0083550D01*
X0187300Y0081050D01*
X0189800Y0083550D01*
X0194800Y0083550D01*
X0197300Y0081050D01*
X0199800Y0083550D01*
X0204800Y0083550D01*
X0207300Y0081050D01*
X0209800Y0083550D01*
X0214800Y0083550D01*
X0217300Y0081050D01*
X0219800Y0083550D01*
X0224800Y0083550D01*
X0227300Y0081050D01*
X0229800Y0083550D01*
X0234800Y0083550D01*
X0237300Y0081050D01*
X0239800Y0083550D01*
X0244800Y0083550D01*
X0247300Y0081050D01*
X0247300Y0076050D01*
X0244800Y0073550D01*
X0239800Y0073550D01*
X0237300Y0076050D01*
X0234800Y0073550D01*
X0229800Y0073550D01*
X0227300Y0076050D01*
X0224800Y0073550D01*
X0219800Y0073550D01*
X0217300Y0076050D01*
X0214800Y0073550D01*
X0209800Y0073550D01*
X0207300Y0076050D01*
X0204800Y0073550D01*
X0199800Y0073550D01*
X0197300Y0076050D01*
X0194800Y0073550D01*
X0189800Y0073550D01*
X0187300Y0076050D01*
X0184800Y0073550D01*
X0179800Y0073550D01*
X0177300Y0076050D01*
X0174800Y0073550D01*
X0169800Y0073550D01*
X0167300Y0076050D01*
X0167300Y0081050D01*
X0169800Y0083550D01*
X0201962Y0011851D02*
X0206900Y0011851D01*
X0201962Y0006913D01*
X0201962Y0005679D01*
X0203197Y0004444D01*
X0205666Y0004444D01*
X0206900Y0005679D01*
X0209513Y0004444D02*
X0209513Y0010616D01*
X0210747Y0011851D01*
X0213216Y0011851D01*
X0214450Y0010616D01*
X0214450Y0004444D01*
D12*
X0234789Y0066600D02*
X0235539Y0066600D01*
X0236290Y0067351D01*
X0236290Y0071104D01*
X0235539Y0071104D02*
X0237041Y0071104D01*
X0238642Y0071104D02*
X0240894Y0071104D01*
X0241645Y0070353D01*
X0241645Y0068852D01*
X0240894Y0068101D01*
X0238642Y0068101D01*
X0238642Y0066600D02*
X0238642Y0071104D01*
X0243246Y0069603D02*
X0244747Y0071104D01*
X0244747Y0066600D01*
X0243246Y0066600D02*
X0246249Y0066600D01*
X0234789Y0066600D02*
X0234038Y0067351D01*
X0246797Y0084550D02*
X0247547Y0084550D01*
X0248298Y0085301D01*
X0248298Y0086802D01*
X0249049Y0087553D01*
X0249799Y0087553D01*
X0250550Y0086802D01*
X0250550Y0085301D01*
X0249799Y0084550D01*
X0246797Y0084550D02*
X0246046Y0085301D01*
X0246046Y0086802D01*
X0246797Y0087553D01*
X0246046Y0089154D02*
X0249049Y0089154D01*
X0250550Y0090655D01*
X0249049Y0092156D01*
X0246046Y0092156D01*
X0247547Y0093758D02*
X0246046Y0095259D01*
X0250550Y0095259D01*
X0250550Y0093758D02*
X0250550Y0096760D01*
X0274046Y0089051D02*
X0275547Y0087550D01*
X0274046Y0089051D02*
X0278550Y0089051D01*
X0278550Y0087550D02*
X0278550Y0090553D01*
X0250550Y0145050D02*
X0250550Y0148053D01*
X0250550Y0146551D02*
X0246046Y0146551D01*
X0247547Y0145050D01*
X0248298Y0149654D02*
X0248298Y0152656D01*
X0246046Y0151906D02*
X0248298Y0149654D01*
X0250550Y0151906D02*
X0246046Y0151906D01*
X0244740Y0157050D02*
X0243239Y0157050D01*
X0242488Y0157801D01*
X0243239Y0159302D02*
X0244740Y0159302D01*
X0245491Y0158551D01*
X0245491Y0157801D01*
X0244740Y0157050D01*
X0243239Y0159302D02*
X0242488Y0160053D01*
X0242488Y0160803D01*
X0243239Y0161554D01*
X0244740Y0161554D01*
X0245491Y0160803D01*
X0247092Y0161554D02*
X0247092Y0158551D01*
X0248593Y0157050D01*
X0250095Y0158551D01*
X0250095Y0161554D01*
X0251696Y0160803D02*
X0252447Y0161554D01*
X0253948Y0161554D01*
X0254699Y0160803D01*
X0254699Y0160053D01*
X0251696Y0157050D01*
X0254699Y0157050D01*
X0256696Y0166050D02*
X0259699Y0166050D01*
X0258197Y0166050D02*
X0258197Y0170554D01*
X0256696Y0169053D01*
D13*
X0196335Y0162507D03*
X0196335Y0157093D03*
D14*
X0197861Y0159800D03*
D15*
X0226050Y0165800D02*
X0226050Y0170800D01*
X0228550Y0173300D01*
X0233550Y0173300D01*
X0236050Y0170800D01*
X0238550Y0173300D01*
X0243550Y0173300D01*
X0246050Y0170800D01*
X0248550Y0173300D01*
X0253550Y0173300D01*
X0256050Y0170800D01*
X0256050Y0165800D01*
X0253550Y0163300D01*
X0248550Y0163300D01*
X0246050Y0165800D01*
X0243550Y0163300D01*
X0238550Y0163300D01*
X0236050Y0165800D01*
X0233550Y0163300D01*
X0228550Y0163300D01*
X0226050Y0165800D01*
X0252300Y0151800D02*
X0252300Y0146800D01*
X0254800Y0144300D01*
X0252300Y0141800D01*
X0252300Y0136800D01*
X0254800Y0134300D01*
X0252300Y0131800D01*
X0252300Y0126800D01*
X0254800Y0124300D01*
X0252300Y0121800D01*
X0252300Y0116800D01*
X0254800Y0114300D01*
X0252300Y0111800D01*
X0252300Y0106800D01*
X0254800Y0104300D01*
X0252300Y0101800D01*
X0252300Y0096800D01*
X0254800Y0094300D01*
X0252300Y0091800D01*
X0252300Y0086800D01*
X0254800Y0084300D01*
X0269800Y0084300D01*
X0272300Y0086800D01*
X0272300Y0091800D01*
X0269800Y0094300D01*
X0272300Y0096800D01*
X0272300Y0101800D01*
X0269800Y0104300D01*
X0272300Y0106800D01*
X0272300Y0111800D01*
X0269800Y0114300D01*
X0272300Y0116800D01*
X0272300Y0121800D01*
X0269800Y0124300D01*
X0272300Y0126800D01*
X0272300Y0131800D01*
X0269800Y0134300D01*
X0272300Y0136800D01*
X0272300Y0141800D01*
X0269800Y0144300D01*
X0272300Y0146800D01*
X0272300Y0151800D01*
X0269800Y0154300D01*
X0254800Y0154300D01*
X0252300Y0151800D01*
X0122599Y0049198D02*
X0122599Y0037501D01*
X0131251Y0037001D02*
X0131251Y0048698D01*
X0142849Y0048698D02*
X0142849Y0037001D01*
X0150751Y0036501D02*
X0150751Y0048198D01*
X0162349Y0048198D02*
X0162349Y0036501D01*
X0176394Y0033511D02*
X0176394Y0017172D01*
X0238206Y0017172D01*
X0238206Y0033511D01*
X0227969Y0044337D02*
X0185056Y0044337D01*
X0183087Y0044337D01*
X0185056Y0044337D02*
X0185450Y0045125D01*
X0111001Y0049198D02*
X0111001Y0037501D01*
D16*
X0217300Y0102600D02*
X0221500Y0102600D01*
X0221500Y0103800D01*
X0217300Y0103800D01*
X0217300Y0102600D01*
X0217300Y0105100D02*
X0221500Y0105100D01*
X0221500Y0106300D01*
X0217300Y0106300D01*
X0217300Y0105100D01*
X0217300Y0107700D02*
X0221500Y0107700D01*
X0221500Y0108900D01*
X0217300Y0108900D01*
X0217300Y0107700D01*
X0217300Y0110200D02*
X0221500Y0110200D01*
X0221500Y0111400D01*
X0217300Y0111400D01*
X0217300Y0110200D01*
X0217300Y0112800D02*
X0221500Y0112800D01*
X0221500Y0114000D01*
X0217300Y0114000D01*
X0217300Y0112800D01*
X0217300Y0115400D02*
X0221500Y0115400D01*
X0221500Y0116600D01*
X0217300Y0116600D01*
X0217300Y0115400D01*
X0217300Y0117900D02*
X0221500Y0117900D01*
X0221500Y0119100D01*
X0217300Y0119100D01*
X0217300Y0117900D01*
X0217300Y0120500D02*
X0221500Y0120500D01*
X0221500Y0121700D01*
X0217300Y0121700D01*
X0217300Y0120500D01*
X0217300Y0123000D02*
X0221500Y0123000D01*
X0221500Y0124200D01*
X0217300Y0124200D01*
X0217300Y0123000D01*
X0217300Y0125600D02*
X0221500Y0125600D01*
X0221500Y0126800D01*
X0217300Y0126800D01*
X0217300Y0125600D01*
X0217300Y0128200D02*
X0221500Y0128200D01*
X0221500Y0129400D01*
X0217300Y0129400D01*
X0217300Y0128200D01*
X0217300Y0130700D02*
X0221500Y0130700D01*
X0221500Y0131900D01*
X0217300Y0131900D01*
X0217300Y0130700D01*
X0217300Y0133300D02*
X0221500Y0133300D01*
X0221500Y0134500D01*
X0217300Y0134500D01*
X0217300Y0133300D01*
X0217300Y0135800D02*
X0221500Y0135800D01*
X0221500Y0137000D01*
X0217300Y0137000D01*
X0217300Y0135800D01*
X0221500Y0139100D02*
X0221500Y0100500D01*
X0239100Y0100500D01*
X0239100Y0139100D01*
X0231500Y0139100D01*
X0229100Y0139100D01*
X0221500Y0139100D01*
X0229100Y0139100D02*
X0229102Y0139031D01*
X0229108Y0138963D01*
X0229118Y0138895D01*
X0229131Y0138828D01*
X0229149Y0138762D01*
X0229170Y0138697D01*
X0229195Y0138633D01*
X0229223Y0138571D01*
X0229255Y0138510D01*
X0229290Y0138451D01*
X0229329Y0138395D01*
X0229371Y0138340D01*
X0229416Y0138289D01*
X0229464Y0138239D01*
X0229514Y0138193D01*
X0229567Y0138150D01*
X0229623Y0138109D01*
X0229680Y0138072D01*
X0229740Y0138039D01*
X0229802Y0138008D01*
X0229865Y0137982D01*
X0229929Y0137959D01*
X0229995Y0137939D01*
X0230062Y0137924D01*
X0230129Y0137912D01*
X0230197Y0137904D01*
X0230266Y0137900D01*
X0230334Y0137900D01*
X0230403Y0137904D01*
X0230471Y0137912D01*
X0230538Y0137924D01*
X0230605Y0137939D01*
X0230671Y0137959D01*
X0230735Y0137982D01*
X0230798Y0138008D01*
X0230860Y0138039D01*
X0230920Y0138072D01*
X0230977Y0138109D01*
X0231033Y0138150D01*
X0231086Y0138193D01*
X0231136Y0138239D01*
X0231184Y0138289D01*
X0231229Y0138340D01*
X0231271Y0138395D01*
X0231310Y0138451D01*
X0231345Y0138510D01*
X0231377Y0138571D01*
X0231405Y0138633D01*
X0231430Y0138697D01*
X0231451Y0138762D01*
X0231469Y0138828D01*
X0231482Y0138895D01*
X0231492Y0138963D01*
X0231498Y0139031D01*
X0231500Y0139100D01*
X0239100Y0137000D02*
X0243300Y0137000D01*
X0243300Y0135800D01*
X0239100Y0135800D01*
X0239100Y0137000D01*
X0239100Y0134500D02*
X0243300Y0134500D01*
X0243300Y0133300D01*
X0239100Y0133300D01*
X0239100Y0134500D01*
X0239100Y0131900D02*
X0243300Y0131900D01*
X0243300Y0130700D01*
X0239100Y0130700D01*
X0239100Y0131900D01*
X0239100Y0129400D02*
X0243300Y0129400D01*
X0243300Y0128200D01*
X0239100Y0128200D01*
X0239100Y0129400D01*
X0239100Y0126800D02*
X0243300Y0126800D01*
X0243300Y0125600D01*
X0239100Y0125600D01*
X0239100Y0126800D01*
X0239100Y0124200D02*
X0243300Y0124200D01*
X0243300Y0123000D01*
X0239100Y0123000D01*
X0239100Y0124200D01*
X0239100Y0121700D02*
X0243300Y0121700D01*
X0243300Y0120500D01*
X0239100Y0120500D01*
X0239100Y0121700D01*
X0239100Y0119100D02*
X0243300Y0119100D01*
X0243300Y0117900D01*
X0239100Y0117900D01*
X0239100Y0119100D01*
X0239100Y0116600D02*
X0243300Y0116600D01*
X0243300Y0115400D01*
X0239100Y0115400D01*
X0239100Y0116600D01*
X0239100Y0114000D02*
X0243300Y0114000D01*
X0243300Y0112800D01*
X0239100Y0112800D01*
X0239100Y0114000D01*
X0239100Y0111400D02*
X0243300Y0111400D01*
X0243300Y0110200D01*
X0239100Y0110200D01*
X0239100Y0111400D01*
X0239100Y0108900D02*
X0243300Y0108900D01*
X0243300Y0107700D01*
X0239100Y0107700D01*
X0239100Y0108900D01*
X0239100Y0106300D02*
X0243300Y0106300D01*
X0243300Y0105100D01*
X0239100Y0105100D01*
X0239100Y0106300D01*
X0239100Y0103800D02*
X0243300Y0103800D01*
X0243300Y0102600D01*
X0239100Y0102600D01*
X0239100Y0103800D01*
D17*
X0218586Y0138034D02*
X0215450Y0141170D01*
X0217018Y0141170D02*
X0217018Y0138034D01*
X0215450Y0138034D02*
X0218586Y0141170D01*
X0218586Y0139602D02*
X0215450Y0139602D01*
D18*
X0129658Y0127250D02*
X0128190Y0127250D01*
X0128924Y0127250D02*
X0128924Y0129452D01*
X0128190Y0128718D01*
X0127448Y0129085D02*
X0127081Y0129452D01*
X0126347Y0129452D01*
X0125980Y0129085D01*
X0125980Y0127617D01*
X0126347Y0127250D01*
X0127081Y0127250D01*
X0127448Y0127617D01*
X0125241Y0127250D02*
X0124507Y0127250D01*
X0124874Y0127250D02*
X0124874Y0129452D01*
X0124507Y0129452D02*
X0125241Y0129452D01*
M02*
