%
M48
M72
T01C0.02362
T02C0.02400
T03C0.02756
T04C0.04000
%
T01
X166300Y129800
X228300Y105800
X208800Y87800
T02
X226400Y97350
X212900Y109050
X201200Y120750
X185000Y118950
X186800Y103650
X145400Y121650
X118400Y136050
X107600Y137850
X94100Y87450
X162500Y60450
X222800Y67650
X248000Y113550
T03
X74050Y39550
X111050Y66800
X140550Y87550
X166550Y107300
X173800Y91300
X175800Y53550
X242050Y56550
X269300Y54300
X179550Y141300
X147550Y151550
X159550Y172800
X166300Y172800
X173050Y172550
X113300Y111800
X84800Y104050
X77800Y144300
T04
X172300Y78550
X182300Y78550
X192300Y78550
X202300Y78550
X212300Y78550
X222300Y78550
X232300Y78550
X242300Y78550
X257300Y89300
X267300Y89300
X267300Y99300
X257300Y99300
X257300Y109300
X267300Y109300
X267300Y119300
X257300Y119300
X257300Y129300
X267300Y129300
X267300Y139300
X257300Y139300
X257300Y149300
X267300Y149300
X251050Y168300
X241050Y168300
X231050Y168300
M30
